<svg xmlns="http://www.w3.org/2000/svg" xml:space="preserve" width="655.359" height="655.359" style="shape-rendering:geometricPrecision;text-rendering:geometricPrecision;image-rendering:optimizeQuality;fill-rule:evenodd;clip-rule:evenodd" viewBox="0 0 6.827 6.827"><defs><style>.fil1{fill:#fffffe;fill-rule:nonzero}</style></defs><g id="Layer_x0020_1"><path style="fill:#ef5350" d="M0 0h6.827v6.827H0z"/><path class="fil1" d="M1.826.929a.107.107 0 0 0 0 .213H5.76v4.547H1.933V1.564a.107.107 0 0 0-.214 0v4.232c0 .059.048.106.107.106h4.04a.107.107 0 0 0 .107-.106v-4.76a.107.107 0 0 0-.106-.107h-4.04z"/><path class="fil1" d="M2.273 1.523H3.54V2.91H2.166V1.523h.107zm1.054.213h-.948v.96h.948v-.96zM2.123 3.197H5.57v.213H2.123zM2.123 3.822H5.57v.213H2.123zM2.123 4.447H5.57v.213H2.123zM2.123 5.072H5.57v.214H2.123zM3.85 2.057h1.72v.213H3.85zM3.85 2.682h1.72v.214H3.85zM1.826 1.142a.107.107 0 0 0 0-.213c-.138 0-.218-.002-.287-.003-.348-.004-.511-.007-.61.108-.086.1-.08.247-.069.523.005.12.011.269.011.466v1.16c0 .678.017 1.035.145 1.238.143.226.378.246.81.246a.107.107 0 0 0 0-.214c-.355 0-.545-.011-.63-.145-.098-.157-.111-.488-.111-1.124V2.023c0-.185-.007-.345-.012-.475-.01-.221-.014-.338.018-.375.034-.04.165-.038.445-.034l.29.003z"/><path style="fill:none" d="M0 0h6.827v6.827H0z"/></g></svg>